#!OML:ASF I:\salsa\salsa 7_09\Patient 1\Session 1\dancerfemale.ASF
:FULLY-SPECIFIED
:DEGREES
1479
root 19.1827 15.896 -1.15934 -2358.69 266.125 560.297
lowerback 0.646188 0.802612 -6.55371
upperback -5.03295 0.775988 0.540624
thorax -5.71921 0.671287 4.19881
lowerneck -1.8962 -3.89468 -9.67313
upperneck 11.5691 -6.02575 10.0658
head 4.33784 -2.993 4.41837
rclavicle -2.46369e-014 -6.06293e-015
rhumerus -45.6898 -30.3338 -70.353
rradius 27.5078
rwrist 12.434
rhand 7.19874 52.7888
rfingers 7.12502
rthumb 32.4648 25.6772
lclavicle -2.46369e-014 -6.06293e-015
lhumerus -48.6267 -2.37657 100.61
lradius 99.8431
lwrist -21.7753
lhand -21.0709 24.536
lfingers 7.12502
lthumb 5.3059 54.4496
rfemur -9.15733 -6.82417 21.4613
rtibia 28.9771
rfoot -25.8749 -10.2562
rtoes -23.6035
lfemur -16.4227 -0.810695 -27.1609
ltibia 35.5897
lfoot -27.2778 -2.39996
ltoes 18.0165
1480
root 19.1917 15.9062 -1.15945 -2353.83 265.414 555.678
lowerback 0.654157 0.89159 -6.30429
upperback -5.22719 0.884433 0.39144
thorax -5.93366 0.718132 3.89406
lowerneck -1.56855 -4.19583 -9.58243
upperneck 11.3504 -6.46406 10.1422
head 4.26115 -3.21209 4.40838
rclavicle 1.49337e-014 -8.94531e-016
rhumerus -50.3738 -35.3281 -63.4737
rradius 25.1721
rwrist 15.915
rhand 6.97592 50.7833
rfingers 7.12502
rthumb 32.2528 23.6284
lclavicle 1.49337e-014 -8.94531e-016
lhumerus -48.1228 -4.36637 102.12
lradius 99.6761
lwrist -21.5756
lhand -21.3359 23.9855
lfingers 7.12502
lthumb 5.05002 53.9053
rfemur -9.15406 -7.06087 21.6335
rtibia 28.6126
rfoot -26.0001 -10.6305
rtoes -22.6979
lfemur -16.7022 -0.990546 -27.0226
ltibia 35.49
lfoot -27.0469 -2.96485
ltoes 17.8828
1481
root 19.2028 15.9145 -1.15824 -2351.69 264.647 553.722
lowerback 0.976593 0.756437 -6.02591
upperback -5.49859 0.670064 0.258781
thorax -6.37468 0.610727 3.60775
lowerneck -1.59196 -4.24033 -9.90655
upperneck 11.4405 -6.5441 10.3927
head 4.31824 -3.25367 4.53615
rclavicle 2.3059e-014 6.26172e-015
rhumerus -55.2268 -38.0237 -57.3257
rradius 23.9008
rwrist 18.2147
rhand 6.6589 48.2074
rfingers 7.12502
rthumb 31.951 20.9917
lclavicle 2.3059e-014 6.26172e-015
lhumerus -47.6208 -5.75535 103.341
lradius 99.5009
lwrist -21.3365
lhand -21.7173 23.8302
lfingers 7.12502
lthumb 4.68175 53.7584
rfemur -9.12113 -7.06824 21.674
rtibia 28.3006
rfoot -26.1918 -11.2726
rtoes -23
lfemur -16.9227 -1.13458 -27.0323
ltibia 35.3833
lfoot -26.8683 -3.54057
ltoes 17.4246
1482
root 19.214 15.9217 -1.15562 -2350.35 263.935 552.584
lowerback 1.71644 0.654652 -5.75854
upperback -6.0525 0.455782 0.107468
thorax -7.36884 0.519671 3.30782
lowerneck -1.60733 -4.23183 -10.2828
upperneck 11.8825 -6.59509 10.6994
head 4.48039 -3.28403 4.69348
rclavicle 7.45443e-017 3.37934e-015
rhumerus -59.9948 -38.6661 -52.3189
rradius 23.5049
rwrist 18.8285
rhand 6.55338 45.7501
rfingers 7.12502
rthumb 31.8505 18.5142
lclavicle 7.45443e-017 3.37934e-015
lhumerus -47.8091 -7.00303 104.564
lradius 99.5249
lwrist -21.1853
lhand -21.9616 23.6229
lfingers 7.12502
lthumb 4.44588 53.5563
rfemur -9.14676 -6.93112 21.7002
rtibia 28.0542
rfoot -26.2755 -12.006
rtoes -23.6288
lfemur -17.1274 -1.23304 -27.0653
ltibia 35.2708
lfoot -26.7241 -4.10636
ltoes 16.9071
1483
root 19.2251 15.9281 -1.151 -2349.24 263.239 551.708
lowerback 1.88144 0.55665 -5.50248
upperback -6.26069 0.305714 -0.0361418
thorax -7.66833 0.435009 3.02423
lowerneck -1.60175 -4.30273 -10.5314
upperneck 11.8116 -6.70631 10.9739
head 4.48661 -3.33704 4.81543
rclavicle 2.71838e-014 1.59028e-015
rhumerus -63.2536 -38.415 -49.2382
rradius 23.6296
rwrist 18.1503
rhand 6.9929 43.257
rfingers 7.12502
rthumb 32.2689 16.1054
lclavicle 2.71838e-014 1.59028e-015
lhumerus -47.6514 -8.29994 105.75
lradius 99.5681
lwrist -21.1705
lhand -21.8865 23.303
lfingers 7.12502
lthumb 4.51832 53.2348
rfemur -9.25371 -6.71332 21.728
rtibia 27.8647
rfoot -26.3118 -12.7635
rtoes -23.9155
lfemur -17.3699 -1.37249 -27.1039
ltibia 35.1657
lfoot -26.6397 -4.67718
ltoes 16.6445
1484
root 19.2362 15.9345 -1.14527 -2347.94 262.596 550.67
lowerback 1.8819 0.418136 -5.16618
upperback -6.38679 0.122444 -0.165299
thorax -7.78078 0.322734 2.71525
lowerneck -1.45973 -4.406 -10.584
upperneck 11.4621 -6.82977 11.0303
head 4.37482 -3.4004 4.83688
rclavicle -8.4235e-015 -4.77083e-015
rhumerus -65.2859 -37.3609 -47.9519
rradius 24.1015
rwrist 16.6341
rhand 7.65931 41.2859
rfingers 7.12502
rthumb 32.903 14.2652
lclavicle -8.4235e-015 -4.77083e-015
lhumerus -47.4285 -9.524 106.828
lradius 99.5678
lwrist -21.0947
lhand -22.0135 23.1985
lfingers 7.12502
lthumb 4.39568 53.1329
rfemur -9.43933 -6.5022 21.8043
rtibia 27.7179
rfoot -26.3663 -13.4408
rtoes -24.1342
lfemur -17.6705 -1.45481 -27.0882
ltibia 35.0909
lfoot -26.6658 -5.27484
ltoes 16.2584
1485
root 19.2485 15.9408 -1.13879 -2345.88 262.034 548.904
lowerback 1.83569 0.253358 -4.6664
upperback -6.51553 -0.0813825 -0.259251
thorax -7.86838 0.190013 2.354
lowerneck -1.2766 -4.48191 -10.6125
upperneck 11.0927 -6.91591 11.0579
head 4.24443 -3.44727 4.84878
rclavicle -1.20016e-014 -1.19271e-015
rhumerus -66.5515 -35.8509 -47.8344
rradius 24.7303
rwrist 14.8869
rhand 7.85147 40.6228
rfingers 7.12502
rthumb 33.0858 13.6408
lclavicle -1.20016e-014 -1.19271e-015
lhumerus -47.2186 -10.6756 107.781
lradius 99.5289
lwrist -20.8813
lhand -22.4088 23.09
lfingers 7.12502
lthumb 4.01403 53.0319
rfemur -9.73378 -6.44212 22.0155
rtibia 27.6388
rfoot -26.3973 -13.9482
rtoes -24.5188
lfemur -18.0286 -1.5278 -26.9168
ltibia 35.0373
lfoot -26.7584 -5.81114
ltoes 15.3453
1486
root 19.2639 15.9467 -1.13231 -2344.16 261.529 547.462
lowerback 1.85521 0.110561 -4.15404
upperback -6.68736 -0.263124 -0.380725
thorax -8.04812 0.0671497 1.95542
lowerneck -1.16328 -4.51384 -10.6041
upperneck 10.903 -6.95731 11.0978
head 4.17391 -3.46905 4.86005
rclavicle -6.31141e-015 -2.5842e-015
rhumerus -67.487 -34.233 -48.2451
rradius 25.3355
rwrist 13.3269
rhand 7.89144 40.6744
rfingers 7.12502
rthumb 33.1238 13.7004
lclavicle -6.31141e-015 -2.5842e-015
lhumerus -47.1329 -11.7045 108.654
lradius 99.4243
lwrist -20.5705
lhand -22.8144 22.7317
lfingers 7.12502
lthumb 3.62234 52.6806
rfemur -10.0802 -6.56984 22.1941
rtibia 27.6439
rfoot -26.455 -14.1952
rtoes -23.2958
lfemur -18.384 -1.57042 -26.7391
ltibia 34.9935
lfoot -26.9268 -6.31692
ltoes 14.0476
1487
root 19.2803 15.952 -1.12681 -2344.21 261.156 547.759
lowerback 1.91773 0.0129762 -3.88938
upperback -6.84931 -0.407504 -0.58835
thorax -8.25167 -0.0260834 1.6021
lowerneck -1.19243 -4.52406 -10.4533
upperneck 10.9253 -6.971 11.0336
head 4.17984 -3.47186 4.81314
rclavicle 1.43125e-014 9.14409e-015
rhumerus -68.1246 -32.6372 -49.019
rradius 25.8403
rwrist 11.9366
rhand 8.18828 40.8023
rfingers 7.12502
rthumb 33.406 13.8887
lclavicle 1.43125e-014 9.14409e-015
lhumerus -47.2191 -12.6001 109.445
lradius 99.2775
lwrist -20.368
lhand -23.2482 22.3826
lfingers 7.12502
lthumb 3.2034 52.3383
rfemur -10.4379 -6.72426 22.0985
rtibia 27.7561
rfoot -26.4956 -14.1761
rtoes -18.5524
lfemur -18.6709 -1.40897 -26.815
ltibia 34.9414
lfoot -27.1445 -6.86128
ltoes 12.6926
1488
root 19.296 15.9557 -1.12161 -2345 260.904 548.745
lowerback 1.96933 -0.0678201 -3.70597
upperback -6.95492 -0.535513 -0.854629
thorax -8.39204 -0.11057 1.23113
lowerneck -1.32578 -4.49164 -10.3888
upperneck 10.9975 -6.94287 11.1789
head 4.22285 -3.44601 4.84711
rclavicle -9.98893e-015 -3.18055e-015
rhumerus -68.4839 -31.0706 -50.203
rradius 26.3556
rwrist 10.4692
rhand 8.50011 40.9659
rfingers 7.12502
rthumb 33.7024 14.1166
lclavicle -9.98893e-015 -3.18055e-015
lhumerus -47.2361 -13.4674 110.09
lradius 99.1032
lwrist -20.3074
lhand -23.4888 22.2539
lfingers 7.12502
lthumb 2.97106 52.213
rfemur -10.8311 -6.8345 21.8987
rtibia 28.0098
rfoot -26.4702 -14.1508
rtoes -18.1885
lfemur -18.861 -1.12233 -27.0085
ltibia 34.8529
lfoot -27.302 -7.43154
ltoes 11.4155
1489
root 19.3114 15.9569 -1.11669 -2345.9 260.694 549.734
lowerback 2.03149 -0.144407 -3.52054
upperback -6.98648 -0.655714 -1.14817
thorax -8.4609 -0.193929 0.829752
lowerneck -1.3744 -4.47181 -10.2651
upperneck 10.8834 -6.93239 11.3827
head 4.19727 -3.427 4.89058
rclavicle 1.38155e-014 7.55382e-015
rhumerus -68.6134 -29.6356 -51.6586
rradius 26.8826
rwrist 8.97503
rhand 8.65225 41.0143
rfingers 7.12502
rthumb 33.847 14.1967
lclavicle 1.38155e-014 7.55382e-015
lhumerus -46.9871 -14.3408 110.583
lradius 98.7977
lwrist -20.1722
lhand -23.4704 22.1936
lfingers 7.12502
lthumb 2.98884 52.1524
rfemur -11.2083 -6.97427 21.6976
rtibia 28.3935
rfoot -26.4548 -14.2163
rtoes -18.1053
lfemur -18.9168 -0.804552 -27.2055
ltibia 34.7176
lfoot -27.3637 -8.039
ltoes 10.604
